<svg width="237" height="232" viewBox="0 0 237 232" fill="none" xmlns="http://www.w3.org/2000/svg">
<path d="M96.6452 62.7219C96.6452 62.7219 97.0468 56.3941 92.1511 50.6607C85.3812 42.7414 75.7809 43.6426 75.7809 43.6426L75.1116 51.1784C75.1116 51.1784 76.5459 51.0826 78.2288 51.4469C79.9117 51.8112 81.2886 52.5974 81.2886 52.5974C81.2886 52.5974 78.726 51.677 74.9777 52.5782C71.3441 53.4411 69.0684 55.5504 69.0684 55.5504L72.09 66.3843C72.09 66.3843 79.3954 61.8782 85.4768 62.2808C91.7686 62.6835 94.8284 66.1159 94.8284 66.1159L96.6452 62.7219Z" fill="#163E6B"/>
<g style="mix-blend-mode:multiply">
<path d="M90.9271 59.884C84.2146 56.0681 76.6988 57.1803 70.713 61.3604L72.1091 66.3843C72.1091 66.3843 79.4144 61.8782 85.4959 62.2809C91.7877 62.6835 94.8475 66.1159 94.8475 66.1159L95.8229 64.3134C94.5989 62.3767 92.3614 60.7085 90.9462 59.9031L90.9271 59.884Z" fill="#D6ABF4"/>
</g>
<path d="M27.0338 140.65L24.9875 135.741L16.3243 145.923L25.7907 142.49L27.0338 140.65Z" fill="#EAA98B"/>
<path d="M78.9747 220.668L80.3133 226.363L88.0012 222.029L88.6132 218.884L80.256 219.555L78.9747 220.668Z" fill="#EAA98B"/>
<path d="M65.473 99.3464C65.473 99.3464 56.8099 102.549 52.5834 106.901C48.357 111.254 49.0455 118.004 49.0455 118.004L45.0486 179.115L48.6439 168.262L27.3971 138.943L25.3508 142.836L48.0319 188.166L62.9869 126.364L75.4558 173.573L71.2867 182.26L78.6495 221.569L81.7858 219.421L81.1547 170.141L75.647 119.269L78.3818 112.865L65.4922 99.3656L65.473 99.3464Z" fill="#3983DD"/>
<g style="mix-blend-mode:multiply">
<path d="M75.5705 116.7C75.8765 116.834 76.2207 116.987 76.5649 117.122L78.3817 112.865L65.4921 99.3655C65.4921 99.3655 65.2818 99.4422 64.9184 99.5956L64.8419 99.7107C63.465 107.649 68.6476 113.593 75.5705 116.719V116.7Z" fill="#D6ABF4"/>
</g>
<path d="M98.003 63.4314L96.7599 62.5493C96.7599 62.5493 95.5551 61.9357 94.6372 63.6615C93.834 65.1572 94.6563 66.2885 94.6563 66.2885L96.1671 66.787L98.0221 63.4506L98.003 63.4314Z" fill="#CA1441"/>
<path d="M110.319 68.9154C110.319 68.9154 114.431 77.3908 112.556 79.711C110.95 81.6861 106.532 80.4205 106.532 80.4205L102.784 83.9104L100.738 80.9382L103.358 79.0016L98.4429 73.8626L104.257 65.9625H110.415L110.3 68.9346L110.319 68.9154Z" fill="#EAA98B"/>
<g style="mix-blend-mode:multiply">
<path d="M102.784 83.9104L106.532 80.4205C106.532 80.4205 109.726 81.3409 111.677 80.4205C109.344 80.9958 106.016 79.1166 105.844 76.9882C104.314 77.2183 102.268 75.7609 102.497 74.0927L99.7624 72.7121C99.3226 73.1148 98.921 73.5175 98.5768 73.9585L103.377 79.0015L100.757 80.9382L102.803 83.9104H102.784Z" fill="#FFC4AA"/>
</g>
<path d="M106.513 88.1865L113.168 111.714L136.94 111.599L145.832 108.608L150.326 113.268L149.102 115.185L145.603 113.344L137.246 113.306L111.294 118.311L101.866 94.0925L103.396 85.8855L106.513 88.1865Z" fill="#EAA98B"/>
<path d="M92.6674 77.0457L87.7907 73.6134L59.4298 66.9021L38.6229 43.9878L27.55 36.2027L19.365 38.753L23.7635 44.4288L37.3607 45.656L55.2608 70.833L81.6328 81.0917L78.2861 86.8826L87.2553 86.5758L92.6674 77.0457Z" fill="#EAA98B"/>
<g style="mix-blend-mode:multiply">
<path d="M21.1818 38.1777L20.9332 40.7856L23.7636 44.4288L33.2873 45.2917L29.6729 42.147L21.1818 38.1777Z" fill="#FFC4AA"/>
</g>
<g style="mix-blend-mode:multiply">
<path d="M81.6329 81.0917L84.0999 82.108L78.8599 85.8855L81.6329 81.0917Z" fill="#FFC4AA"/>
</g>
<path d="M111.753 74.1503C111.562 74.1503 111.39 74.0352 111.333 73.8626C111.237 73.6325 111.352 73.3641 111.6 73.2682L113.207 72.6546C113.436 72.5587 113.704 72.6929 113.8 72.923C113.895 73.1531 113.78 73.4216 113.532 73.5175L111.925 74.1311C111.925 74.1311 111.811 74.1694 111.772 74.1694L111.753 74.1503Z" fill="#CA1441"/>
<path d="M104.658 75.7226L104.544 73.4408C104.544 73.4408 105.576 73.0381 107.049 71.5616C108.54 70.0659 109.325 67.0363 109.325 67.0363L109.382 69.8934C109.382 69.8934 112.04 68.436 112.289 65.5406C112.461 63.5464 111.543 62.3767 110.529 61.8782C108.693 60.9961 106.073 61.9357 106.073 61.9357C106.073 61.9357 97.0469 58.7718 94.6373 66.9979C92.3041 74.9556 99.4374 77.7168 100.68 78.5222C101.943 79.3275 101.675 80.4013 101.675 80.4013C101.675 80.4013 103.415 80.3822 103.721 78.6948C103.932 77.5826 101.445 77.3141 101.732 75.55C102.057 73.4791 104.639 75.7226 104.639 75.7226H104.658Z" fill="#163E6B"/>
<g style="mix-blend-mode:multiply">
<path d="M103.74 78.6948C103.951 77.5826 101.465 77.3142 101.751 75.5501C101.77 75.3775 101.828 75.2433 101.885 75.1282C99.992 74.0736 98.1178 73.2107 96.6261 71.4274C95.7273 70.3536 94.9623 68.9155 94.5416 67.4198C92.5718 75.0515 99.4756 77.736 100.7 78.5222C101.962 79.3276 101.694 80.4014 101.694 80.4014C101.694 80.4014 103.434 80.3822 103.74 78.6948Z" fill="#D6ABF4"/>
</g>
<path d="M101.331 79.6344L104.524 83.6803L102.918 84.9842L104.218 86.1347L101.484 97.9658L83.6791 105.828L80.7149 106.058L81.4799 109.26L79.3571 115.434C79.3571 115.434 73.3522 113.977 69.317 108.876C65.2818 103.776 64.3639 98.9629 64.3639 98.9629C64.3639 98.9629 67.7106 97.8891 70.1393 97.659C72.5681 97.4289 73.7155 96.2784 73.7155 96.2784C73.7155 96.2784 74.8056 93.4405 76.2208 90.104C77.7507 86.5182 78.4965 84.85 78.4965 84.85C78.4965 84.85 83.813 84.3898 87.3127 81.6477C90.8124 78.9057 92.5527 76.4705 92.5527 76.4705L98.7106 80.7465L101.292 79.6727L101.331 79.6344Z" fill="#CA1441"/>
<path d="M70.6747 97.4864L73.7155 95.7415C73.7155 95.7415 75.3219 99.9408 78.1331 102.453C80.9443 104.965 83.3731 106.039 83.3731 106.039L81.4798 109.241C81.4798 109.241 76.9857 108.397 74.0214 104.351C71.0572 100.305 70.6747 97.4864 70.6747 97.4864Z" fill="#4197FF"/>
<path d="M79.032 224.713L79.3953 228.223L81.9197 232L94.618 222.412L99.8198 208.415L97.9839 208.3L90.9845 217.446L85.7827 217.715L87.5613 220.821L79.032 224.713Z" fill="#163E6B"/>
<path d="M26.5939 136.987L20.4168 142.26L21.7938 144.887L14.7179 147.054L9.13366 153.459L6.60929 153.804L13.1306 141.455L23.1707 131.388L25.217 134.13L26.5939 136.987Z" fill="#163E6B"/>
<g style="mix-blend-mode:multiply">
<path d="M102.899 91.8682L103.396 97.985L102.191 94.9362L102.899 91.8682Z" fill="#FFC4AA"/>
</g>
<g style="mix-blend-mode:multiply">
<path d="M62.9678 126.345L65.5878 120.918L70.6748 120.458L67.7489 123.028L68.8389 135.089L62.9678 126.345Z" fill="#D6ABF4"/>
</g>
<g style="mix-blend-mode:multiply">
<path d="M21.7938 144.887L13.3027 145.578L6.60929 153.804L9.13366 153.459L14.7179 147.054L21.7938 144.887Z" fill="#D6ABF4"/>
</g>
<g style="mix-blend-mode:multiply">
<path d="M79.3954 228.223L85.5342 226.516L92.3614 221.089L99.8198 208.415L94.6181 222.412L81.9197 232L79.3954 228.223Z" fill="#D6ABF4"/>
</g>
<path d="M178.266 105.348C155.05 97.7165 142.371 72.5778 149.982 49.2992C157.593 26.0206 182.665 13.3075 205.882 20.9392C229.098 28.5709 241.777 53.7095 234.166 76.9881C226.555 100.267 201.483 112.98 178.266 105.348ZM203.51 28.1682C184.271 21.8404 163.484 32.3868 157.192 51.6769C150.881 70.9671 161.399 91.8105 180.638 98.1191C199.877 104.447 220.664 93.9006 226.956 74.6104C233.267 55.3202 222.749 34.4768 203.51 28.1682Z" fill="#EA2F5D"/>
<path d="M164.076 91.6763L108.617 150.889L114.756 156.565L166.888 95.2621L164.076 91.6763Z" fill="#22AF76"/>
<path d="M164.076 91.6763L108.617 150.889L114.756 156.565L166.888 95.2621L164.076 91.6763Z" fill="#EA2F5D"/>
<g style="mix-blend-mode:multiply">
<path d="M114.411 144.715L108.617 150.889L114.756 156.565L160.749 102.472L114.411 144.715Z" fill="#EBD0FF"/>
</g>
<path d="M2.11514 17.7562L9.43965 41.3032L11.1608 43.2016C11.1608 43.2016 17.7968 41.8977 22.9986 41.4375C28.2003 40.9773 29.4243 41.4758 29.4243 41.4758C29.4243 41.4758 33.4594 37.8901 36.9591 35.3206C40.4588 32.7511 47.114 29.3955 47.114 29.3955L35.4866 1.43814L32.8857 0C32.8857 0 29.6155 4.83213 27.1676 7.20985C23.8018 10.4888 20.5507 16.5865 20.5507 16.5865C20.5507 16.5865 16.6685 15.2251 11.3329 15.762C5.99732 16.2989 2.11514 17.7562 2.11514 17.7562Z" fill="#A8B9CE"/>
<g style="mix-blend-mode:multiply">
<path d="M29.4051 41.4567C29.4051 41.4567 33.4403 37.8709 36.94 35.3015C40.4397 32.732 47.0948 29.3763 47.0948 29.3763L43.7481 27.0562L8.86588 39.4241L9.4396 41.2841L11.1608 43.1824C11.1608 43.1824 17.7968 41.8785 22.9985 41.4183C28.2003 40.9581 29.4242 41.4567 29.4242 41.4567H29.4051Z" fill="#EBD0FF"/>
</g>
<path d="M0.642537 16.3947L9.43959 41.2841C9.43959 41.2841 16.3242 40.5171 21.5069 40.0569C26.6895 39.5967 28.9652 40.5938 28.9652 40.5938C28.9652 40.5938 31.4896 35.7041 35.0084 33.1346C38.5272 30.5652 43.7481 27.0561 43.7481 27.0561L32.8665 0C32.8665 0 29.0417 2.58864 25.6759 5.86759C22.3101 9.14654 19.059 15.2442 19.059 15.2442C19.059 15.2442 15.1768 13.8828 9.8412 14.4197C4.50559 14.9566 0.623413 16.4139 0.623413 16.4139L0.642537 16.3947Z" fill="#D0E5FF"/>
<g style="mix-blend-mode:multiply">
<path d="M9.86027 14.4005C4.52467 14.9374 0.642487 16.3947 0.642487 16.3947L9.43954 41.2841C9.43954 41.2841 16.3242 40.517 21.5068 40.0568C26.7085 39.5966 28.9652 40.5937 28.9652 40.5937L19.0589 15.225C19.0589 15.225 15.1768 13.8636 9.84115 14.4005H9.86027Z" fill="#EBD0FF"/>
</g>
<path d="M32.8282 39.9034L27.244 36.8929L26.8807 39.0597L31.9294 43.1632L32.8282 39.9034Z" fill="#EAA98B"/>
<path d="M191.73 94.3416C208.734 94.3416 222.52 80.5197 222.52 63.4696C222.52 46.4195 208.734 32.5977 191.73 32.5977C174.725 32.5977 160.94 46.4195 160.94 63.4696C160.94 80.5197 174.725 94.3416 191.73 94.3416Z" fill="#FCE2E8"/>
<path d="M186.509 69.4907L186.452 68.4744C186.088 64.5435 187.064 61.9932 191.29 60.2675L193.126 59.558C194.962 58.791 195.765 57.1611 195.765 55.7805C195.765 53.2877 194.044 51.9071 191.596 51.9071C189.416 51.9071 187.331 53.537 187.217 56.3366H181.059C181.059 49.3568 185.687 45.5218 191.692 45.5218C197.697 45.5218 202.114 49.2993 202.114 55.4162C202.114 60.3633 199.207 63.8724 195.306 65.253C193.375 65.9241 191.959 66.4227 191.959 68.5128V69.4907H186.528H186.509ZM184.979 77.6018C184.979 75.2049 186.911 73.5175 189.205 73.5175C191.5 73.5175 193.47 75.2049 193.47 77.6018C193.47 79.9987 191.539 81.7244 189.205 81.7244C186.872 81.7244 184.979 79.9987 184.979 77.6018Z" fill="#EA2F5D"/>
</svg>
